<svg xmlns="http://www.w3.org/2000/svg" xmlns:xlink="http://www.w3.org/1999/xlink" width="500" zoomAndPan="magnify" viewBox="0 0 375 374.999991" height="500" preserveAspectRatio="xMidYMid meet" version="1.0"><defs><g/><clipPath id="a4c2ef745e"><path d="M 99 79.804688 L 254.375 79.804688 L 254.375 247.804688 L 99 247.804688 Z M 99 79.804688 " clip-rule="nonzero"/></clipPath></defs><rect x="-37.5" width="450" fill="#ffffff" y="-37.499999" height="449.999989" fill-opacity="1"/><rect x="-37.5" width="450" fill="#ffffff" y="-37.499999" height="449.999989" fill-opacity="1"/><rect x="-37.5" width="450" fill="#00bf63" y="-37.499999" height="449.999989" fill-opacity="1"/><path fill="#ffffff" d="M 152.894531 133.5625 C 152.730469 130.59375 153.710938 127.972656 155.792969 125.773438 C 157.640625 123.839844 160.316406 122.675781 163.765625 122.300781 L 163.765625 143.046875 C 161.808594 142.703125 160.246094 142.234375 159.027344 141.621094 C 157.410156 140.792969 156.203125 139.976562 155.316406 139.09375 C 154.503906 138.335938 153.90625 137.453125 153.546875 136.519531 C 153.199219 135.488281 152.980469 134.523438 152.894531 133.5625 Z M 169.972656 168.402344 L 169.972656 149.296875 C 172.714844 150.015625 174.707031 151.113281 176.03125 152.625 C 177.589844 154.441406 178.308594 157.082031 178.226562 160.695312 C 178.226562 160.703125 178.226562 160.714844 178.226562 160.726562 C 178.226562 160.984375 178.175781 161.582031 177.8125 162.679688 C 177.5625 163.488281 177.113281 164.316406 176.503906 165.101562 C 175.839844 165.902344 174.859375 166.664062 173.652344 167.3125 C 172.75 167.816406 171.511719 168.179688 169.972656 168.402344 Z M 152.085938 170.082031 C 155.347656 172.140625 159.277344 173.347656 163.777344 173.671875 L 163.777344 176.53125 C 163.777344 177.808594 164.308594 178.527344 164.769531 178.910156 C 165.367188 179.402344 166.070312 179.664062 166.800781 179.664062 C 167.515625 179.664062 168.207031 179.421875 168.851562 178.945312 C 169.570312 178.414062 169.972656 177.554688 169.972656 176.53125 L 169.972656 173.601562 C 174.285156 173.078125 177.546875 171.609375 179.6875 169.238281 C 182.011719 166.671875 183.296875 163.839844 183.5 160.851562 C 183.652344 159.242188 183.558594 157.589844 183.226562 155.832031 C 182.929688 154.0625 182.253906 152.335938 181.195312 150.671875 C 180.101562 149.046875 178.582031 147.621094 176.703125 146.445312 C 174.976562 145.328125 172.765625 144.488281 169.972656 143.886719 L 169.972656 122.792969 C 170.835938 123.050781 171.609375 123.414062 172.3125 123.886719 C 173.410156 124.632812 174.378906 125.511719 175.195312 126.507812 C 175.921875 127.367188 176.511719 128.433594 176.890625 129.566406 C 177.265625 130.734375 177.503906 131.875 177.597656 132.992188 C 177.828125 134.953125 179.167969 135.519531 180.351562 135.390625 C 180.96875 135.320312 182.453125 134.910156 182.945312 132.425781 C 182.839844 128.066406 181.433594 124.523438 178.777344 121.898438 C 176.464844 119.59375 173.503906 118.105469 169.972656 117.476562 L 169.972656 114.007812 C 169.972656 113.082031 169.621094 112.277344 168.882812 111.617188 C 167.609375 110.625 166.042969 110.554688 164.683594 111.710938 C 164.074219 112.296875 163.765625 113.074219 163.765625 114.007812 L 163.765625 117.117188 C 161.554688 117.304688 159.511719 117.753906 157.554688 118.480469 C 155.15625 119.398438 153.25 120.570312 151.734375 122.054688 C 150.199219 123.511719 148.996094 125.28125 148.160156 127.332031 C 147.359375 129.402344 147.054688 131.574219 147.257812 133.824219 C 147.734375 137.957031 149.480469 141.367188 152.472656 143.980469 C 155.375 146.410156 159.242188 147.890625 163.765625 148.351562 L 163.777344 168.484375 C 159.996094 168.175781 157.035156 167.222656 154.960938 165.648438 C 152.644531 163.894531 151.214844 161.785156 150.632812 159.351562 C 150.5 158.261719 149.683594 157.082031 147.851562 157.03125 C 146.734375 156.949219 146.0625 157.410156 145.734375 157.8125 C 145.410156 158.203125 145.078125 158.894531 145.335938 159.886719 C 146.15625 164.308594 148.425781 167.734375 152.085938 170.082031 " fill-opacity="1" fill-rule="nonzero"/><g clip-path="url(#a4c2ef745e)"><path fill="#ffffff" d="M 248.796875 239.433594 C 248.796875 241.023438 247.507812 242.308594 245.925781 242.308594 L 237.21875 242.308594 C 235.636719 242.308594 234.347656 241.023438 234.347656 239.433594 L 234.347656 215.921875 C 234.347656 214.402344 233.125 213.171875 231.605469 213.171875 L 203.574219 213.171875 C 202.058594 213.171875 200.832031 214.402344 200.832031 215.921875 L 200.832031 239.433594 C 200.832031 241.023438 199.546875 242.308594 197.964844 242.308594 L 189.257812 242.308594 C 187.671875 242.308594 186.386719 241.023438 186.386719 239.433594 L 186.386719 215.921875 C 186.386719 214.402344 185.160156 213.171875 183.644531 213.171875 L 152.960938 213.171875 C 151.441406 213.171875 150.21875 214.402344 150.21875 215.921875 L 150.21875 239.433594 C 150.21875 241.023438 148.929688 242.308594 147.347656 242.308594 L 138.640625 242.308594 C 137.058594 242.308594 135.773438 241.023438 135.773438 239.433594 L 135.773438 195.632812 C 138.898438 198.597656 143.089844 200.449219 147.726562 200.449219 L 183.933594 200.449219 C 193.546875 200.449219 201.367188 192.605469 201.367188 182.964844 L 201.367188 145.265625 L 233.789062 164.125 C 246.402344 171.929688 248.796875 179.011719 248.796875 189.347656 Z M 117.324219 122.652344 C 105.460938 115.363281 104.335938 100.515625 104.9375 91.28125 C 112.300781 100.847656 125.515625 106.351562 133.773438 109.011719 C 135.050781 109.417969 136.460938 108.835938 137.066406 107.617188 C 139.109375 103.492188 143.195312 100.929688 147.726562 100.929688 L 183.933594 100.929688 C 188.464844 100.929688 192.546875 103.492188 194.589844 107.617188 C 195.195312 108.835938 196.609375 109.421875 197.882812 109.011719 C 206.148438 106.351562 219.371094 100.839844 226.730469 91.269531 C 227.34375 100.492188 226.234375 115.339844 214.339844 122.652344 C 209.132812 125.847656 203.519531 128.59375 197.65625 130.816406 C 196.589844 131.222656 195.882812 132.242188 195.882812 133.386719 L 195.882812 182.964844 C 195.882812 189.574219 190.519531 194.953125 183.933594 194.953125 L 147.726562 194.953125 C 141.136719 194.953125 135.773438 189.574219 135.773438 182.964844 L 135.773438 133.386719 C 135.773438 132.242188 135.066406 131.222656 134 130.816406 C 128.136719 128.59375 122.523438 125.847656 117.324219 122.652344 Z M 236.605469 159.40625 L 201.367188 138.910156 L 201.367188 135.269531 C 206.914062 133.054688 212.230469 130.390625 217.203125 127.339844 C 238.476562 114.269531 231.289062 83.3125 230.972656 82 C 230.6875 80.808594 229.644531 79.953125 228.421875 79.902344 C 227.257812 79.839844 226.089844 80.617188 225.707031 81.78125 C 221.878906 93.34375 206.570312 100.164062 198.28125 103.082031 C 195.058594 98.3125 189.75 95.433594 183.933594 95.433594 L 147.726562 95.433594 C 141.90625 95.433594 136.601562 98.3125 133.375 103.082031 C 125.085938 100.164062 109.777344 93.34375 105.949219 81.78125 C 105.566406 80.617188 104.476562 79.824219 103.234375 79.902344 C 102.011719 79.953125 100.972656 80.808594 100.6875 82 C 100.367188 83.3125 93.183594 114.269531 114.457031 127.339844 C 119.425781 130.390625 124.742188 133.054688 130.289062 135.269531 L 130.289062 239.433594 C 130.289062 244.054688 134.035156 247.808594 138.640625 247.808594 L 147.347656 247.808594 C 151.957031 247.808594 155.699219 244.054688 155.699219 239.433594 L 155.699219 218.671875 L 180.90625 218.671875 L 180.90625 239.433594 C 180.90625 244.054688 184.648438 247.808594 189.257812 247.808594 L 197.964844 247.808594 C 202.570312 247.808594 206.316406 244.054688 206.316406 239.433594 L 206.316406 218.671875 L 228.867188 218.671875 L 228.867188 239.433594 C 228.867188 244.054688 232.613281 247.808594 237.21875 247.808594 L 245.925781 247.808594 C 250.53125 247.808594 254.277344 244.054688 254.277344 239.433594 L 254.277344 189.347656 C 254.277344 177.609375 251.332031 168.519531 236.605469 159.40625 " fill-opacity="1" fill-rule="nonzero"/></g><g fill="#ffffff" fill-opacity="1"><g transform="translate(111.528739, 283.446485)"><g><path d="M 8.757812 0.480469 L 9.160156 0.398438 L 9.679688 0.359375 L 10.28125 0.359375 L 10.800781 0.238281 L 11.277344 0.160156 L 11.757812 0.0390625 L 12.800781 -0.199219 L 13.078125 -0.320312 L 13.71875 -0.71875 L 14.320312 -1.238281 L 14.917969 -1.960938 L 15 -2.199219 L 15.117188 -2.441406 L 15.320312 -2.679688 L 15.480469 -2.917969 L 15.597656 -3.199219 L 15.800781 -3.679688 L 16.039062 -4.320312 L 16.160156 -4.558594 L 16.238281 -4.839844 L 16.277344 -5.121094 L 16.398438 -5.601562 L 16.640625 -6.597656 L 16.71875 -6.839844 L 16.839844 -7.679688 L 16.878906 -7.839844 L 16.917969 -8.121094 L 17 -8.320312 L 17.039062 -8.757812 L 17.117188 -9.28125 L 17.117188 -9.558594 L 17.199219 -9.800781 L 17.199219 -10.238281 L 17.039062 -10.519531 L 16.757812 -10.800781 L 16.277344 -10.839844 L 14.320312 -10.960938 L 13.480469 -10.960938 L 12.4375 -11 L 12.121094 -10.960938 L 11.839844 -10.640625 L 11.757812 -10.238281 L 11.558594 -9.71875 L 11.519531 -9.4375 L 11.4375 -9.078125 L 11.320312 -8.480469 L 11.199219 -8 L 11.160156 -7.800781 L 11.121094 -7.558594 L 10.960938 -7.039062 L 10.757812 -6.480469 L 10.4375 -5.757812 L 10.28125 -5.558594 L 9.71875 -5.199219 L 9.121094 -5.199219 L 8.480469 -5.121094 L 7.878906 -5.320312 L 7.558594 -5.601562 L 7.398438 -6.199219 L 7.398438 -6.480469 L 7.359375 -6.71875 L 7.359375 -7.121094 L 7.398438 -7.679688 L 7.519531 -8.238281 L 7.519531 -8.558594 L 7.640625 -9.398438 L 7.597656 -9.679688 L 7.679688 -9.960938 L 7.71875 -10.238281 L 7.71875 -10.558594 L 7.757812 -10.839844 L 7.878906 -11.121094 L 7.878906 -11.960938 L 8 -12.558594 L 8.078125 -12.878906 L 8.160156 -13.398438 L 8.199219 -13.679688 L 8.359375 -14.320312 L 8.398438 -14.640625 L 8.71875 -16.238281 L 8.917969 -16.839844 L 9 -17.398438 L 9.078125 -17.679688 L 9.121094 -17.917969 L 9.160156 -18.199219 L 9.28125 -18.558594 L 9.398438 -19.039062 L 9.519531 -19.640625 L 9.679688 -20.117188 L 9.679688 -20.359375 L 9.917969 -21.039062 L 10.121094 -21.558594 L 10.28125 -22.238281 L 10.398438 -22.519531 L 10.519531 -22.757812 L 10.878906 -23.199219 L 11.320312 -23.359375 L 11.800781 -23.4375 L 12.238281 -23.4375 L 12.800781 -23.277344 L 13.238281 -23.039062 L 13.480469 -22.320312 L 13.480469 -21.71875 L 13.398438 -21.160156 L 13.359375 -20.640625 L 13.121094 -19.757812 L 13.039062 -19.199219 L 12.878906 -18.480469 L 12.800781 -18.199219 L 12.800781 -17.640625 L 13.078125 -17.199219 L 14.238281 -17.039062 L 16.757812 -17 L 17.320312 -17.039062 L 17.800781 -17.078125 L 17.957031 -17.238281 L 18.160156 -18.277344 L 18.238281 -18.597656 L 18.480469 -20.160156 L 18.558594 -20.796875 L 18.640625 -21.398438 L 18.71875 -21.71875 L 18.757812 -22.117188 L 18.757812 -23 L 18.71875 -23.597656 L 18.679688 -23.957031 L 18.640625 -24.476562 L 18.597656 -24.957031 L 18.519531 -25.398438 L 18.320312 -25.796875 L 18.238281 -26.078125 L 18.117188 -26.277344 L 17.917969 -26.636719 L 17.839844 -26.839844 L 17.398438 -27.238281 L 16.878906 -27.636719 L 16.320312 -27.839844 L 15.878906 -27.917969 L 15.71875 -28.039062 L 15.4375 -28.078125 L 15.160156 -28.160156 L 14.917969 -28.199219 L 14.359375 -28.277344 L 13.960938 -28.277344 L 13.597656 -28.398438 L 12.597656 -28.519531 L 11.960938 -28.519531 L 11.199219 -28.476562 L 10.597656 -28.476562 L 10.320312 -28.4375 L 9.800781 -28.316406 L 9.121094 -28.199219 L 8.28125 -27.839844 L 8.039062 -27.71875 L 7.519531 -27.476562 L 7.28125 -27.277344 L 6.71875 -26.71875 L 6.398438 -26.316406 L 6.121094 -25.917969 L 5.839844 -25.679688 L 5.679688 -25.238281 L 5.441406 -24.679688 L 5.238281 -24.199219 L 5 -23.519531 L 4.839844 -22.957031 L 4.601562 -22.160156 L 4.320312 -21.359375 L 4.199219 -20.839844 L 4.078125 -20.558594 L 4.039062 -20.277344 L 4 -20.039062 L 3.917969 -19.757812 L 3.878906 -19.480469 L 3.757812 -19.238281 L 3.71875 -18.839844 L 3.640625 -18.398438 L 3.558594 -18.117188 L 3.359375 -17.320312 L 3.359375 -16.757812 L 3.238281 -16.519531 L 3.238281 -16.277344 L 3.199219 -15.800781 L 3.078125 -15.398438 L 3 -14.960938 L 2.878906 -14.519531 L 2.878906 -14.359375 L 2.839844 -14.238281 L 2.839844 -13.679688 L 2.679688 -13.4375 L 2.558594 -12.71875 L 2.601562 -12.519531 L 2.480469 -12.078125 L 2.398438 -11.757812 L 2.441406 -11.398438 L 2.28125 -10.839844 L 2.199219 -10 L 2.160156 -9.757812 L 2.160156 -9.480469 L 2.078125 -8.917969 L 2.039062 -8.359375 L 2 -8.039062 L 1.960938 -7.199219 L 1.960938 -6.160156 L 1.917969 -5.878906 L 1.917969 -5.519531 L 1.960938 -5.199219 L 1.960938 -4.441406 L 2.039062 -4.160156 L 2.121094 -3.640625 L 2.199219 -3.398438 L 2.320312 -2.878906 L 2.679688 -2.359375 L 2.960938 -1.800781 L 3.160156 -1.601562 L 3.320312 -1.398438 L 3.839844 -1 L 4.078125 -0.839844 L 4.28125 -0.679688 L 4.679688 -0.441406 L 4.917969 -0.238281 L 5.398438 -0.078125 L 5.917969 0.121094 L 6.160156 0.160156 L 6.441406 0.238281 L 6.839844 0.28125 L 7.078125 0.320312 L 7.398438 0.359375 L 7.839844 0.398438 L 8.121094 0.441406 L 8.398438 0.441406 Z M 8.757812 0.480469 "/></g></g></g><g fill="#ffffff" fill-opacity="1"><g transform="translate(128.967004, 283.446485)"><g><path d="M 3.238281 0.078125 L 3.558594 0.0390625 L 4.679688 0.078125 L 4.917969 -0.078125 L 5.078125 -0.359375 L 5.199219 -0.558594 L 5.320312 -1 L 5.558594 -1.601562 L 5.960938 -2.359375 L 6.121094 -2.839844 L 6.238281 -3.121094 L 6.320312 -3.398438 L 6.597656 -3.917969 L 6.800781 -4.359375 L 7.878906 -4.359375 L 9.640625 -4.320312 L 10.28125 -4.238281 L 11.160156 -4.199219 L 11.199219 -3.878906 L 11.199219 -2 L 11.160156 -1.601562 L 11.199219 -1.199219 L 11.238281 -0.480469 L 11.320312 -0.078125 L 11.480469 0.0390625 L 12.078125 0.0390625 L 12.597656 0.078125 L 13 0.0390625 L 13.277344 0 L 13.757812 0.0390625 L 14.078125 0.0390625 L 14.960938 0 L 15.519531 0 L 15.839844 0.0390625 L 16.117188 0 C 16.277344 0 16.398438 0.0390625 16.558594 0 C 16.757812 -0.121094 16.71875 -0.480469 16.679688 -0.640625 L 16.679688 -1.480469 L 16.640625 -2.359375 L 16.640625 -2.71875 L 16.597656 -3.039062 L 16.640625 -3.601562 L 16.640625 -4.199219 L 16.597656 -4.480469 L 16.558594 -5 L 16.558594 -5.238281 L 16.480469 -6.757812 L 16.519531 -7.039062 L 16.480469 -7.597656 L 16.519531 -8.199219 L 16.480469 -8.800781 L 16.480469 -9.078125 L 16.4375 -10.917969 L 16.4375 -12.121094 L 16.398438 -12.4375 L 16.359375 -12.917969 L 16.359375 -14.480469 L 16.277344 -14.917969 L 16.238281 -15.558594 L 16.238281 -15.800781 L 16.199219 -16.320312 L 16.238281 -16.558594 L 16.199219 -17.117188 L 16.199219 -17.917969 L 16.117188 -18.480469 L 16.117188 -19.359375 L 16.160156 -19.640625 L 16.117188 -20.238281 L 16.117188 -20.796875 L 16.039062 -21.597656 L 16 -22.117188 L 16 -22.679688 L 15.960938 -24.117188 L 15.960938 -24.839844 L 15.878906 -25.078125 L 15.878906 -25.957031 L 15.757812 -27.679688 L 15.480469 -27.878906 L 15.277344 -27.957031 L 14.640625 -27.957031 L 14.277344 -27.917969 L 14 -28 L 13.640625 -28 L 12.878906 -27.957031 L 12.238281 -27.957031 L 11.839844 -27.917969 L 11.078125 -27.957031 L 10.679688 -27.957031 L 10.398438 -27.917969 L 10.238281 -27.476562 L 10.121094 -27.238281 L 10 -26.957031 L 9.640625 -26.238281 L 9.359375 -25.71875 L 9.121094 -25 L 9.039062 -24.796875 L 8.878906 -24.558594 L 8.640625 -24.117188 L 8.558594 -23.839844 L 8.480469 -23.597656 L 8.359375 -23.359375 L 8.28125 -23.078125 L 7.917969 -22.359375 L 7.800781 -22.078125 L 7.679688 -21.679688 L 7.441406 -21.320312 L 7.320312 -21.078125 L 7.121094 -20.558594 L 6.800781 -19.71875 L 6.640625 -19.480469 L 6.441406 -19.199219 L 6.320312 -18.640625 L 6.078125 -18.117188 L 6 -17.917969 L 5.878906 -17.398438 L 5.679688 -17.117188 L 5.558594 -16.597656 L 5.441406 -16.359375 L 5.199219 -15.917969 L 5 -15.238281 L 4.71875 -14.71875 L 4.601562 -14.398438 L 4.28125 -13.277344 L 4.160156 -13.039062 L 3.960938 -12.480469 L 3.839844 -12.238281 L 3.71875 -11.960938 L 3.679688 -11.71875 L 3.441406 -11.160156 L 3.359375 -10.878906 L 3.121094 -10.398438 L 2.917969 -10.078125 L 2.839844 -9.71875 L 2.761719 -9.4375 L 2.480469 -8.878906 L 2.359375 -8.597656 L 2.160156 -8.078125 L 2.039062 -7.839844 L 2 -7.558594 L 1.917969 -7.320312 L 1.71875 -6.839844 L 1.519531 -6.558594 L 1.441406 -6.320312 L 1.121094 -5.601562 L 0.960938 -5.078125 L 0.519531 -4.121094 L 0.320312 -3.640625 L 0.078125 -3.160156 L -0.320312 -1.960938 L -0.640625 -1.441406 L -0.878906 -0.960938 L -0.921875 -0.71875 L -1 -0.441406 L -0.921875 -0.121094 L -0.558594 -0.0390625 L 2.359375 0 L 2.640625 0.0390625 Z M 9.839844 -9.558594 L 9.480469 -9.597656 L 9.039062 -9.640625 L 8.71875 -9.640625 L 8.441406 -9.878906 L 8.558594 -10.160156 L 8.640625 -10.519531 L 8.71875 -10.800781 L 8.917969 -11.480469 L 9.078125 -11.757812 L 9.28125 -12.359375 L 9.320312 -12.640625 L 9.558594 -13.519531 L 9.679688 -13.878906 L 9.800781 -14.160156 L 9.917969 -14.519531 L 10.078125 -14.800781 L 10.121094 -15.078125 L 10.28125 -15.480469 L 10.4375 -15.800781 L 10.640625 -16.4375 L 10.757812 -16.839844 L 10.960938 -17.480469 L 11.121094 -18 L 11.4375 -18.117188 L 11.480469 -17.199219 L 11.4375 -15.757812 L 11.398438 -14.238281 L 11.4375 -13.277344 L 11.359375 -12.960938 L 11.359375 -12.277344 L 11.320312 -12 L 11.320312 -10.960938 L 11.277344 -10.640625 L 11.320312 -10.320312 L 11.277344 -9.757812 L 11.039062 -9.558594 Z M 9.839844 -9.558594 "/></g></g></g><g fill="#ffffff" fill-opacity="1"><g transform="translate(146.805229, 283.446485)"><g><path d="M 7.917969 0.519531 L 8.359375 0.480469 L 8.640625 0.441406 L 9.078125 0.441406 L 9.359375 0.398438 L 9.71875 0.441406 L 10 0.398438 L 10.519531 0.238281 L 10.839844 0.199219 L 11.4375 0 L 11.679688 -0.160156 L 12.160156 -0.28125 L 12.519531 -0.558594 L 12.917969 -0.800781 L 13.238281 -1.078125 L 13.4375 -1.238281 L 13.757812 -1.601562 L 13.960938 -1.761719 L 14.160156 -2.160156 L 14.398438 -2.320312 L 14.757812 -3 L 14.960938 -3.558594 L 15.039062 -3.917969 L 15.117188 -4.238281 L 15.277344 -4.757812 L 15.277344 -5.359375 L 15.320312 -5.601562 L 15.4375 -6.160156 L 15.4375 -7.28125 L 15.480469 -7.558594 L 15.4375 -7.839844 L 15.480469 -8.078125 L 15.519531 -8.640625 L 15.4375 -8.878906 L 15.238281 -9.558594 L 15.199219 -9.839844 L 15.160156 -10.160156 L 15.117188 -10.4375 L 14.878906 -11.277344 L 14.640625 -11.800781 L 14.320312 -12.597656 L 14.277344 -12.800781 L 13.917969 -13.238281 L 13.640625 -13.917969 L 13.160156 -14.398438 L 12.960938 -14.757812 L 12.597656 -15.160156 L 12.480469 -15.359375 L 12.277344 -15.480469 L 12.160156 -15.71875 L 11.757812 -16.039062 L 11.519531 -16.199219 L 11.359375 -16.398438 L 11.199219 -16.71875 L 11 -16.917969 L 10.839844 -17.160156 L 10.320312 -17.800781 L 9.878906 -18.359375 L 9.597656 -18.878906 L 9.4375 -19.199219 L 9.121094 -19.757812 L 8.839844 -20.519531 L 8.800781 -20.796875 L 8.800781 -21.320312 L 8.839844 -21.878906 L 8.960938 -22.277344 L 9 -22.558594 L 9.160156 -22.957031 L 9.28125 -23.238281 L 9.480469 -23.519531 L 9.917969 -23.71875 L 10.398438 -23.878906 L 10.917969 -23.796875 L 11.320312 -23.480469 L 11.679688 -23.117188 L 11.800781 -22.878906 L 11.878906 -22.398438 L 11.878906 -21.480469 L 11.757812 -20.238281 L 11.679688 -19.917969 L 11.71875 -19.398438 L 12.039062 -19.117188 L 12.597656 -19.117188 L 13.160156 -19.078125 L 15.398438 -19.078125 L 16.117188 -19.117188 L 16.597656 -19.359375 L 16.757812 -20.238281 L 16.917969 -21.359375 L 16.957031 -22.039062 L 16.917969 -22.839844 L 16.917969 -23.71875 L 16.679688 -24.679688 L 16.558594 -24.957031 L 16.480469 -25.398438 L 16.320312 -25.636719 L 16.039062 -26.078125 L 15.917969 -26.277344 L 15.519531 -26.71875 L 15.398438 -26.878906 L 14.960938 -27.277344 L 14.640625 -27.398438 L 14.359375 -27.636719 L 13.878906 -27.878906 L 13.71875 -28 L 13.4375 -28.039062 L 12.757812 -28.238281 L 12.160156 -28.277344 L 11.800781 -28.359375 L 11.519531 -28.359375 L 10.519531 -28.398438 L 9.28125 -28.398438 L 8.597656 -28.199219 L 7.839844 -28.039062 L 7.398438 -27.796875 L 6.757812 -27.558594 L 6.039062 -27.039062 L 5.558594 -26.636719 L 5.320312 -26.398438 L 5.078125 -26 L 4.960938 -25.839844 L 4.640625 -25.476562 L 4.519531 -25.277344 L 4.398438 -25 L 4.238281 -24.679688 L 4 -24.160156 L 3.960938 -23.757812 L 3.839844 -23.359375 L 3.679688 -23.078125 L 3.640625 -22.519531 L 3.519531 -22.238281 L 3.441406 -21.4375 L 3.441406 -20.277344 L 3.398438 -20 L 3.441406 -19.679688 L 3.480469 -19.160156 L 3.640625 -18.640625 L 3.71875 -18.320312 L 3.839844 -18.039062 L 4.039062 -17.757812 L 4.199219 -17.398438 L 4.441406 -16.800781 L 4.679688 -16.398438 L 4.878906 -16.117188 L 5.28125 -15.800781 L 5.679688 -15.359375 L 6.039062 -14.839844 L 6.519531 -14.320312 L 6.960938 -13.800781 L 7.121094 -13.558594 L 7.320312 -13.359375 L 7.757812 -12.839844 L 7.960938 -12.519531 L 8.238281 -12.238281 L 8.359375 -12.039062 L 8.441406 -11.839844 L 8.597656 -11.597656 L 8.878906 -11.039062 L 9.199219 -10.558594 L 9.519531 -10 L 9.640625 -9.398438 L 9.640625 -9.160156 L 9.800781 -8.441406 L 9.800781 -7.800781 L 9.839844 -7.238281 L 9.839844 -6.960938 L 9.800781 -6.558594 L 9.71875 -6.078125 L 9.558594 -5.601562 L 9.398438 -5.320312 L 9.199219 -4.960938 L 9 -4.757812 L 8.558594 -4.640625 L 8.238281 -4.558594 L 7.878906 -4.558594 L 7.359375 -4.679688 L 6.960938 -5.078125 L 6.679688 -5.679688 L 6.558594 -6.078125 L 6.480469 -6.960938 L 6.480469 -7.800781 L 6.519531 -8.078125 L 6.519531 -9.558594 L 6.199219 -10.121094 L 5.679688 -10.160156 L 3.441406 -10.160156 L 2.960938 -10.199219 L 2 -10.121094 L 1.441406 -9.839844 L 1.320312 -9.199219 L 1.238281 -8.917969 L 1.199219 -8.597656 L 1.121094 -8 L 1.160156 -7.71875 L 1.121094 -7.039062 L 1.121094 -5.839844 L 1.199219 -5.199219 L 1.238281 -4.960938 L 1.359375 -4.398438 L 1.398438 -4.160156 L 1.679688 -3.441406 L 1.761719 -3.121094 L 2.039062 -2.441406 L 2.398438 -1.878906 L 2.800781 -1.398438 L 3.199219 -0.878906 L 3.679688 -0.558594 L 4.078125 -0.28125 L 4.519531 -0.121094 L 5.160156 0.160156 L 5.441406 0.238281 L 5.839844 0.320312 L 6.28125 0.398438 L 6.679688 0.398438 L 6.960938 0.441406 Z M 7.917969 0.519531 "/></g></g></g><g fill="#ffffff" fill-opacity="1"><g transform="translate(162.723651, 283.446485)"><g><path d="M 13.597656 0.078125 L 13.917969 0.0390625 L 14.71875 0.0390625 L 15.238281 0 L 15.480469 -0.0390625 L 16.078125 -0.0390625 L 16.558594 -0.160156 L 16.71875 -0.398438 L 16.800781 -0.679688 L 16.800781 -1 L 16.878906 -1.28125 L 16.917969 -1.601562 L 17.039062 -1.800781 L 17.117188 -2.28125 L 17.160156 -2.71875 L 17.238281 -3 L 17.320312 -3.519531 L 17.359375 -3.800781 L 17.480469 -4.359375 L 17.519531 -5 L 17.558594 -5.558594 L 17.640625 -5.800781 L 17.757812 -6.238281 L 17.878906 -6.800781 L 17.917969 -7.078125 L 17.917969 -7.398438 L 18.039062 -7.960938 L 18.078125 -8.238281 L 18.160156 -8.480469 L 18.238281 -8.757812 L 18.199219 -9 L 18.4375 -9.839844 L 18.398438 -10.078125 L 18.480469 -10.359375 L 18.597656 -10.917969 L 18.679688 -11.359375 L 18.679688 -11.597656 L 18.839844 -12.320312 L 18.878906 -12.597656 L 19.078125 -13.121094 L 19.117188 -13.398438 L 19.117188 -13.917969 L 19.160156 -14.199219 L 19.277344 -14.4375 L 19.199219 -14.71875 L 19.199219 -15.039062 L 19.359375 -15.277344 L 19.398438 -15.558594 L 19.519531 -16.117188 L 19.558594 -16.359375 L 19.597656 -16.957031 L 19.796875 -17.519531 L 19.839844 -18.117188 L 19.917969 -18.757812 L 20 -19.277344 L 20.039062 -19.519531 L 20.238281 -20 L 20.277344 -20.238281 L 20.359375 -20.757812 L 20.398438 -21.078125 L 20.480469 -21.359375 L 20.519531 -21.636719 L 20.640625 -22.160156 L 20.679688 -22.4375 L 20.757812 -22.957031 L 20.757812 -23.238281 L 20.796875 -23.757812 L 20.878906 -24.078125 L 20.957031 -24.359375 L 21 -24.636719 L 21 -24.957031 L 21.039062 -25.519531 L 21.199219 -26 L 21.199219 -26.277344 L 21.238281 -26.519531 L 21.199219 -26.679688 L 21.359375 -26.917969 L 21.320312 -27.199219 L 21.359375 -27.4375 L 21.078125 -27.796875 L 20.796875 -27.917969 L 20.160156 -28 L 19.039062 -28 L 18.238281 -28.039062 L 16.800781 -28.039062 L 16.4375 -28 L 16.199219 -27.957031 L 15.878906 -27.597656 L 15.839844 -27.359375 L 15.878906 -27.078125 L 15.800781 -26.796875 L 15.640625 -26.4375 L 15.597656 -26.199219 L 15.519531 -25.679688 L 15.4375 -25.4375 L 15.320312 -24.917969 L 15.320312 -24.597656 L 15.160156 -24.039062 L 15.117188 -23.757812 L 15.160156 -23.4375 L 15.160156 -22.957031 L 15 -22.597656 L 14.960938 -22.078125 L 14.839844 -21.558594 L 14.839844 -21.277344 L 14.757812 -21.039062 L 14.71875 -20.757812 L 14.679688 -20.4375 L 14.640625 -20.160156 L 14.597656 -19.917969 L 14.398438 -19.398438 L 14.480469 -19.160156 L 14.277344 -18.558594 L 14.238281 -18.277344 L 14.238281 -18 L 14.078125 -17.640625 L 14 -17.199219 L 13.960938 -17 L 13.121094 -17.039062 L 12.800781 -17 L 12.320312 -17.039062 L 12 -17 L 10.839844 -17.039062 L 10.519531 -17.039062 L 10.238281 -17.078125 L 10.320312 -17.398438 L 10.359375 -17.640625 L 10.4375 -17.957031 L 10.398438 -18.199219 L 10.480469 -18.480469 L 10.597656 -19 L 10.558594 -19.277344 L 10.679688 -19.519531 L 10.71875 -19.796875 L 10.800781 -20.117188 L 10.878906 -20.320312 L 10.878906 -20.558594 L 10.917969 -21.039062 L 11 -21.238281 L 11.039062 -21.757812 L 11.121094 -22.078125 L 11.199219 -22.359375 L 11.199219 -23 L 11.320312 -23.277344 L 11.359375 -23.757812 L 11.4375 -24.320312 L 11.597656 -25.078125 L 11.640625 -25.4375 L 11.757812 -25.796875 L 11.800781 -26.359375 L 11.839844 -26.597656 L 11.960938 -27.078125 L 11.917969 -27.359375 L 11.917969 -27.597656 L 11.839844 -27.957031 L 11.4375 -28.039062 L 10.960938 -28.117188 L 10.558594 -28 L 9.679688 -28 L 9.121094 -28.039062 L 7.480469 -28 L 6.480469 -28 L 6.121094 -27.796875 L 6.078125 -27.359375 L 6.039062 -26.878906 L 5.917969 -26.359375 L 5.839844 -26.078125 L 5.878906 -25.757812 L 5.757812 -25.476562 L 5.71875 -25.199219 L 5.640625 -24.917969 L 5.679688 -24.359375 L 5.398438 -23.839844 L 5.398438 -23 L 5.28125 -22.480469 L 5.238281 -22.238281 L 5.199219 -21.917969 L 5.039062 -21.597656 L 5.039062 -21.039062 L 5 -20.839844 L 4.878906 -20 L 4.800781 -19.679688 L 4.71875 -19.160156 L 4.558594 -18.320312 L 4.519531 -17.757812 L 4.480469 -17.480469 L 4.238281 -16.917969 L 4.199219 -16.359375 L 4.121094 -15.800781 L 4.078125 -15.558594 L 3.878906 -14.398438 L 3.71875 -13.839844 L 3.71875 -13.519531 L 3.601562 -13.199219 L 3.480469 -12.917969 L 3.398438 -12.320312 L 3.398438 -12.039062 L 3.320312 -11.558594 L 3.199219 -11.160156 L 3.160156 -10.640625 L 3 -10.078125 L 3.039062 -9.800781 L 2.960938 -9.480469 L 2.917969 -9.238281 L 2.839844 -9 L 2.640625 -7.597656 L 2.558594 -7.28125 L 2.441406 -6.71875 L 2.441406 -6.398438 L 2.398438 -6.121094 L 2.238281 -5.757812 L 2.078125 -5.480469 L 2.121094 -4.917969 L 1.960938 -4.359375 L 2 -4.039062 L 1.917969 -3.757812 L 1.679688 -3.320312 L 1.761719 -3.039062 L 1.679688 -2.800781 L 1.679688 -2.519531 L 1.601562 -2.160156 L 1.558594 -1.761719 L 1.359375 -1.238281 L 1.199219 -0.878906 L 1.199219 -0.558594 L 1.359375 -0.121094 L 2.160156 -0.0390625 L 3.441406 -0.0390625 L 3.917969 0.0390625 L 4.199219 -0.0390625 L 4.480469 -0.078125 L 4.757812 0.0390625 L 5.078125 0.0390625 L 5.679688 -0.0390625 L 6.160156 -0.078125 L 6.519531 -0.121094 L 6.839844 -0.28125 L 7.039062 -0.679688 L 7.121094 -1.28125 L 7.160156 -1.558594 L 7.238281 -1.878906 L 7.320312 -2.441406 L 7.320312 -2.71875 L 7.441406 -3.28125 L 7.480469 -3.601562 L 7.71875 -4.71875 L 7.800781 -5.320312 L 7.960938 -5.839844 L 8 -6.039062 L 8.199219 -6.519531 L 8.160156 -6.757812 L 8.398438 -7.640625 L 8.597656 -8.558594 L 8.679688 -8.839844 L 8.679688 -9.519531 L 8.839844 -9.800781 L 8.917969 -10.320312 L 9.078125 -10.878906 L 9.121094 -11.199219 L 9.160156 -11.398438 L 9.839844 -11.359375 L 10.4375 -11.238281 L 11.71875 -11.359375 L 12.078125 -11.277344 L 12.359375 -11.277344 L 12.71875 -11.320312 L 12.640625 -10.839844 L 12.640625 -10.558594 L 12.558594 -10 L 12.480469 -9.71875 L 12.359375 -9.160156 L 12.359375 -8.679688 L 12.277344 -8.28125 L 12.121094 -7.839844 L 11.878906 -6.640625 L 11.800781 -5.878906 L 11.679688 -5.28125 L 11.640625 -4.71875 L 11.558594 -4.519531 L 11.519531 -4 L 11.480469 -3.71875 L 11.480469 -3.441406 L 11.4375 -3.160156 L 11.277344 -2.320312 L 11.277344 -1.761719 L 11.121094 -1.480469 L 11.039062 -1.121094 L 11 -0.761719 L 10.960938 -0.441406 L 11.199219 -0.078125 L 11.480469 -0.0390625 L 11.757812 -0.0390625 L 12.199219 0 L 13.277344 0 Z M 13.597656 0.078125 "/></g></g></g><g fill="#ffffff" fill-opacity="1"><g transform="translate(182.841654, 283.446485)"><g/></g></g><g fill="#ffffff" fill-opacity="1"><g transform="translate(191.800763, 283.446485)"><g><path d="M 8.757812 0.480469 L 9.160156 0.398438 L 9.679688 0.359375 L 10.28125 0.359375 L 10.800781 0.238281 L 11.277344 0.160156 L 11.757812 0.0390625 L 12.800781 -0.199219 L 13.078125 -0.320312 L 13.71875 -0.71875 L 14.320312 -1.238281 L 14.917969 -1.960938 L 15 -2.199219 L 15.117188 -2.441406 L 15.320312 -2.679688 L 15.480469 -2.917969 L 15.597656 -3.199219 L 15.800781 -3.679688 L 16.039062 -4.320312 L 16.160156 -4.558594 L 16.238281 -4.839844 L 16.277344 -5.121094 L 16.398438 -5.601562 L 16.640625 -6.597656 L 16.71875 -6.839844 L 16.839844 -7.679688 L 16.878906 -7.839844 L 16.917969 -8.121094 L 17 -8.320312 L 17.039062 -8.757812 L 17.117188 -9.28125 L 17.117188 -9.558594 L 17.199219 -9.800781 L 17.199219 -10.238281 L 17.039062 -10.519531 L 16.757812 -10.800781 L 16.277344 -10.839844 L 14.320312 -10.960938 L 13.480469 -10.960938 L 12.4375 -11 L 12.121094 -10.960938 L 11.839844 -10.640625 L 11.757812 -10.238281 L 11.558594 -9.71875 L 11.519531 -9.4375 L 11.4375 -9.078125 L 11.320312 -8.480469 L 11.199219 -8 L 11.160156 -7.800781 L 11.121094 -7.558594 L 10.960938 -7.039062 L 10.757812 -6.480469 L 10.4375 -5.757812 L 10.28125 -5.558594 L 9.71875 -5.199219 L 9.121094 -5.199219 L 8.480469 -5.121094 L 7.878906 -5.320312 L 7.558594 -5.601562 L 7.398438 -6.199219 L 7.398438 -6.480469 L 7.359375 -6.71875 L 7.359375 -7.121094 L 7.398438 -7.679688 L 7.519531 -8.238281 L 7.519531 -8.558594 L 7.640625 -9.398438 L 7.597656 -9.679688 L 7.679688 -9.960938 L 7.71875 -10.238281 L 7.71875 -10.558594 L 7.757812 -10.839844 L 7.878906 -11.121094 L 7.878906 -11.960938 L 8 -12.558594 L 8.078125 -12.878906 L 8.160156 -13.398438 L 8.199219 -13.679688 L 8.359375 -14.320312 L 8.398438 -14.640625 L 8.71875 -16.238281 L 8.917969 -16.839844 L 9 -17.398438 L 9.078125 -17.679688 L 9.121094 -17.917969 L 9.160156 -18.199219 L 9.28125 -18.558594 L 9.398438 -19.039062 L 9.519531 -19.640625 L 9.679688 -20.117188 L 9.679688 -20.359375 L 9.917969 -21.039062 L 10.121094 -21.558594 L 10.28125 -22.238281 L 10.398438 -22.519531 L 10.519531 -22.757812 L 10.878906 -23.199219 L 11.320312 -23.359375 L 11.800781 -23.4375 L 12.238281 -23.4375 L 12.800781 -23.277344 L 13.238281 -23.039062 L 13.480469 -22.320312 L 13.480469 -21.71875 L 13.398438 -21.160156 L 13.359375 -20.640625 L 13.121094 -19.757812 L 13.039062 -19.199219 L 12.878906 -18.480469 L 12.800781 -18.199219 L 12.800781 -17.640625 L 13.078125 -17.199219 L 14.238281 -17.039062 L 16.757812 -17 L 17.320312 -17.039062 L 17.800781 -17.078125 L 17.957031 -17.238281 L 18.160156 -18.277344 L 18.238281 -18.597656 L 18.480469 -20.160156 L 18.558594 -20.796875 L 18.640625 -21.398438 L 18.71875 -21.71875 L 18.757812 -22.117188 L 18.757812 -23 L 18.71875 -23.597656 L 18.679688 -23.957031 L 18.640625 -24.476562 L 18.597656 -24.957031 L 18.519531 -25.398438 L 18.320312 -25.796875 L 18.238281 -26.078125 L 18.117188 -26.277344 L 17.917969 -26.636719 L 17.839844 -26.839844 L 17.398438 -27.238281 L 16.878906 -27.636719 L 16.320312 -27.839844 L 15.878906 -27.917969 L 15.71875 -28.039062 L 15.4375 -28.078125 L 15.160156 -28.160156 L 14.917969 -28.199219 L 14.359375 -28.277344 L 13.960938 -28.277344 L 13.597656 -28.398438 L 12.597656 -28.519531 L 11.960938 -28.519531 L 11.199219 -28.476562 L 10.597656 -28.476562 L 10.320312 -28.4375 L 9.800781 -28.316406 L 9.121094 -28.199219 L 8.28125 -27.839844 L 8.039062 -27.71875 L 7.519531 -27.476562 L 7.28125 -27.277344 L 6.71875 -26.71875 L 6.398438 -26.316406 L 6.121094 -25.917969 L 5.839844 -25.679688 L 5.679688 -25.238281 L 5.441406 -24.679688 L 5.238281 -24.199219 L 5 -23.519531 L 4.839844 -22.957031 L 4.601562 -22.160156 L 4.320312 -21.359375 L 4.199219 -20.839844 L 4.078125 -20.558594 L 4.039062 -20.277344 L 4 -20.039062 L 3.917969 -19.757812 L 3.878906 -19.480469 L 3.757812 -19.238281 L 3.71875 -18.839844 L 3.640625 -18.398438 L 3.558594 -18.117188 L 3.359375 -17.320312 L 3.359375 -16.757812 L 3.238281 -16.519531 L 3.238281 -16.277344 L 3.199219 -15.800781 L 3.078125 -15.398438 L 3 -14.960938 L 2.878906 -14.519531 L 2.878906 -14.359375 L 2.839844 -14.238281 L 2.839844 -13.679688 L 2.679688 -13.4375 L 2.558594 -12.71875 L 2.601562 -12.519531 L 2.480469 -12.078125 L 2.398438 -11.757812 L 2.441406 -11.398438 L 2.28125 -10.839844 L 2.199219 -10 L 2.160156 -9.757812 L 2.160156 -9.480469 L 2.078125 -8.917969 L 2.039062 -8.359375 L 2 -8.039062 L 1.960938 -7.199219 L 1.960938 -6.160156 L 1.917969 -5.878906 L 1.917969 -5.519531 L 1.960938 -5.199219 L 1.960938 -4.441406 L 2.039062 -4.160156 L 2.121094 -3.640625 L 2.199219 -3.398438 L 2.320312 -2.878906 L 2.679688 -2.359375 L 2.960938 -1.800781 L 3.160156 -1.601562 L 3.320312 -1.398438 L 3.839844 -1 L 4.078125 -0.839844 L 4.28125 -0.679688 L 4.679688 -0.441406 L 4.917969 -0.238281 L 5.398438 -0.078125 L 5.917969 0.121094 L 6.160156 0.160156 L 6.441406 0.238281 L 6.839844 0.28125 L 7.078125 0.320312 L 7.398438 0.359375 L 7.839844 0.398438 L 8.121094 0.441406 L 8.398438 0.441406 Z M 8.757812 0.480469 "/></g></g></g><g fill="#ffffff" fill-opacity="1"><g transform="translate(209.239029, 283.446485)"><g><path d="M 9.679688 0.640625 L 10.558594 0.519531 L 11 0.398438 L 11.277344 0.359375 L 11.839844 0.238281 L 12.160156 0.160156 L 12.4375 0.121094 L 13.359375 -0.238281 L 13.519531 -0.359375 L 14 -0.679688 L 14.480469 -1.039062 L 14.679688 -1.28125 L 14.917969 -1.480469 L 15.398438 -1.960938 L 15.480469 -2.199219 L 15.679688 -2.441406 L 15.839844 -2.679688 L 16.199219 -3.199219 L 16.398438 -3.480469 L 16.71875 -4.199219 L 17 -4.757812 L 17.039062 -5.160156 L 17.238281 -5.441406 L 17.359375 -5.878906 L 17.359375 -6.160156 L 17.480469 -6.640625 L 17.679688 -7.078125 L 17.71875 -7.519531 L 17.839844 -7.757812 L 18.039062 -8.238281 L 18 -8.480469 L 18.398438 -9.878906 L 18.519531 -10.121094 L 18.597656 -10.679688 L 18.679688 -10.960938 L 18.679688 -11.320312 L 18.796875 -12.039062 L 18.917969 -12.277344 L 19.039062 -12.800781 L 19.078125 -13.277344 L 19.199219 -13.800781 L 19.277344 -14.320312 L 19.4375 -14.839844 L 19.398438 -15.320312 L 19.597656 -15.757812 L 19.558594 -16.160156 L 19.640625 -16.800781 L 19.71875 -17.078125 L 19.757812 -17.71875 L 19.796875 -18.320312 L 19.878906 -18.878906 L 19.917969 -19.117188 L 19.917969 -19.519531 L 19.878906 -19.796875 L 19.917969 -20.039062 L 20 -20.320312 L 20.039062 -20.839844 L 20.039062 -21.117188 L 20 -21.636719 L 20.039062 -21.878906 L 20.078125 -22.398438 L 20.078125 -22.679688 L 20.039062 -23 L 19.957031 -23.757812 L 19.839844 -24.359375 L 19.757812 -24.636719 L 19.679688 -24.878906 L 19.558594 -25.117188 L 19.320312 -25.636719 L 19.199219 -25.917969 L 19 -26.160156 L 18.558594 -26.558594 L 18.117188 -26.917969 L 17.917969 -27.160156 L 17.597656 -27.359375 L 16.878906 -27.839844 L 16.277344 -28.117188 L 16.039062 -28.199219 L 15.71875 -28.238281 L 15.398438 -28.359375 L 14.757812 -28.4375 L 14.320312 -28.476562 L 14.078125 -28.519531 L 13.359375 -28.558594 L 12.878906 -28.519531 L 12.320312 -28.476562 L 11.597656 -28.359375 L 11.199219 -28.316406 L 10.597656 -28.160156 L 10.359375 -28.117188 L 9.757812 -27.957031 L 9.28125 -27.71875 L 8.800781 -27.4375 L 8.519531 -27.238281 L 8.199219 -27.117188 L 7.679688 -26.757812 L 7.121094 -26.160156 L 6.917969 -25.917969 L 6.640625 -25.71875 L 6.320312 -25.238281 L 6 -24.71875 L 5.839844 -24.476562 L 5.800781 -24.199219 L 5.441406 -23.679688 L 5.28125 -23.398438 L 5.039062 -22.917969 L 4.839844 -22.359375 L 4.679688 -21.878906 L 4.558594 -21.597656 L 4.320312 -21.078125 L 4.238281 -20.558594 L 4.039062 -20.277344 L 3.878906 -19.277344 L 3.800781 -18.71875 L 3.757812 -18.480469 L 3.640625 -18.199219 L 3.558594 -17.71875 L 3.558594 -17.160156 L 3.480469 -16.878906 L 3.238281 -16.480469 L 3.28125 -16.238281 L 3.199219 -15.960938 L 3.199219 -15.71875 L 3.121094 -15.4375 L 3 -15.199219 L 3 -14.917969 L 2.878906 -14.4375 L 2.878906 -13.917969 L 2.761719 -13.4375 L 2.640625 -12.71875 L 2.558594 -12.4375 L 2.480469 -11.917969 L 2.558594 -11.71875 L 2.398438 -11.160156 L 2.398438 -10.878906 L 2.320312 -10.320312 L 2.320312 -10 L 2.160156 -9.4375 L 2.078125 -8.558594 L 2.078125 -8.28125 L 2.121094 -7.960938 L 2 -7.558594 L 2 -6.800781 L 1.917969 -6.519531 L 2.039062 -5.71875 L 2.078125 -5.480469 L 2.121094 -4.917969 L 2.199219 -4.679688 L 2.238281 -4.398438 L 2.320312 -4.160156 L 2.398438 -3.960938 L 2.441406 -3.71875 L 2.558594 -3.441406 L 2.558594 -3.199219 L 2.878906 -2.679688 L 3.078125 -2.398438 L 3.199219 -2.160156 L 3.398438 -1.960938 L 3.519531 -1.761719 L 4.078125 -1.121094 L 4.800781 -0.519531 L 5.359375 -0.160156 L 5.640625 0 L 6.238281 0.160156 L 6.558594 0.199219 L 7.480469 0.480469 L 7.839844 0.519531 L 8.121094 0.558594 L 8.640625 0.519531 Z M 9.359375 -4.800781 L 9.121094 -4.839844 L 8.800781 -4.917969 L 8.480469 -5.039062 L 8.28125 -5.238281 L 8.039062 -5.601562 L 7.960938 -5.757812 L 7.839844 -6.039062 L 7.839844 -7.160156 L 7.71875 -7.441406 L 7.878906 -7.839844 L 7.917969 -8.320312 L 7.800781 -8.597656 L 7.917969 -8.878906 L 7.917969 -9.160156 L 8.039062 -9.757812 L 8.039062 -10.078125 L 8.121094 -10.359375 L 8.121094 -10.679688 L 8.199219 -11.039062 L 8.160156 -11.199219 L 8.238281 -11.480469 L 8.199219 -11.800781 L 8.398438 -12.359375 L 8.519531 -12.640625 L 8.480469 -12.960938 L 8.519531 -13.238281 L 8.519531 -13.519531 L 8.597656 -14.078125 L 8.679688 -14.359375 L 8.839844 -15 L 8.960938 -15.320312 L 9.039062 -15.917969 L 9.121094 -16.199219 L 9.160156 -16.480469 L 9.28125 -17.117188 L 9.398438 -17.679688 L 9.558594 -18.238281 L 9.597656 -18.480469 L 9.71875 -19.039062 L 9.757812 -19.359375 L 9.757812 -19.4375 L 10 -20.277344 L 10.078125 -20.597656 L 10.160156 -20.878906 L 10.398438 -21.398438 L 10.558594 -21.679688 L 10.71875 -22.160156 L 11 -22.597656 L 11.398438 -22.957031 L 12.039062 -23.199219 L 12.359375 -23.277344 L 13.121094 -23.320312 L 13.757812 -23.039062 L 14.039062 -22.679688 L 14.199219 -22.4375 L 14.359375 -21.636719 L 14.277344 -21.078125 L 14.238281 -20.558594 L 14.160156 -19.839844 L 14.160156 -19.320312 L 14.078125 -18.957031 L 13.960938 -18.398438 L 13.878906 -18.078125 L 13.839844 -17.558594 L 13.878906 -17.277344 L 13.800781 -17 L 13.71875 -16.679688 L 13.640625 -16.199219 L 13.480469 -15.597656 L 13.519531 -14.917969 L 13.398438 -14.679688 L 13.320312 -13.917969 L 13.199219 -13.597656 L 13.078125 -13.238281 L 13 -12.320312 L 12.878906 -11.71875 L 12.757812 -11.359375 L 12.800781 -11.238281 L 12.800781 -10.917969 L 12.679688 -10.679688 L 12.640625 -10.359375 L 12.519531 -9.839844 L 12.398438 -9.558594 L 12.359375 -9 L 12.238281 -8.679688 L 12.160156 -8.121094 L 12.078125 -7.839844 L 11.960938 -7.238281 L 11.960938 -6.917969 L 11.878906 -6.640625 L 11.640625 -6.078125 L 11.359375 -5.519531 L 10.800781 -5.121094 L 10.4375 -4.960938 L 9.878906 -4.800781 Z M 9.359375 -4.800781 "/></g></g></g><g fill="#ffffff" fill-opacity="1"><g transform="translate(228.637106, 283.446485)"><g><path d="M 18.519531 0.078125 L 19.117188 -0.0390625 L 19.398438 -1.039062 L 19.957031 -2 L 20.078125 -2.519531 L 20.117188 -2.761719 L 20.320312 -3.320312 L 20.4375 -3.640625 L 20.597656 -4.160156 L 20.839844 -4.640625 L 20.917969 -4.917969 L 21 -5.441406 L 21.160156 -5.71875 L 21.238281 -5.960938 L 21.4375 -6.519531 L 21.519531 -6.757812 L 21.839844 -7.597656 L 21.878906 -7.878906 L 22.039062 -8.160156 L 22.160156 -8.71875 L 22.480469 -9.28125 L 22.597656 -9.839844 L 22.917969 -10.480469 L 23.078125 -10.960938 L 23.199219 -11.199219 L 23.398438 -11.71875 L 23.636719 -12.679688 L 23.679688 -12.917969 L 23.757812 -13.160156 L 24.039062 -13.519531 L 24.160156 -13.960938 L 24.359375 -14.519531 L 24.636719 -15 L 24.796875 -15.4375 L 24.957031 -15.71875 L 25.039062 -15.960938 L 25.160156 -16.519531 L 25.238281 -16.800781 L 25.359375 -17.078125 L 25.558594 -17.597656 L 25.71875 -17.839844 L 25.917969 -18.480469 L 26 -18.71875 L 26.238281 -19.238281 L 26.316406 -19.4375 L 26.398438 -19.796875 L 26.71875 -20.519531 L 26.757812 -20.796875 L 26.957031 -21.277344 L 27.039062 -21.558594 L 27.316406 -22.320312 L 27.398438 -22.597656 L 27.71875 -23.117188 L 27.757812 -23.359375 L 27.878906 -23.636719 L 28.039062 -24.160156 L 28.160156 -24.71875 L 28.316406 -25.199219 L 28.71875 -26.160156 L 28.839844 -26.398438 L 29 -26.839844 L 29.078125 -27.078125 L 29.15625 -27.757812 L 28.917969 -28 L 28.519531 -28 L 28.238281 -28.039062 L 27.957031 -28 L 27.398438 -28.039062 L 26.558594 -28 L 25.757812 -28 L 24.519531 -28.039062 L 24.238281 -27.957031 L 23.957031 -27.957031 L 23.480469 -27.757812 L 23.359375 -27.558594 L 23.117188 -27.039062 L 23.039062 -26.796875 L 23 -26.519531 L 22.878906 -26.238281 L 22.796875 -25.957031 L 22.679688 -25.71875 L 22.480469 -25.160156 L 22.277344 -24.71875 L 22.160156 -24.277344 L 22 -23.757812 L 21.71875 -23.238281 L 21.519531 -22.199219 L 21.398438 -21.71875 L 21.359375 -21.4375 L 21.078125 -20.957031 L 21 -20.679688 L 20.917969 -20.4375 L 20.878906 -20.160156 L 20.71875 -19.679688 L 20.640625 -19.359375 L 20.480469 -18.839844 L 20.359375 -18.597656 L 20.238281 -18.320312 L 20.160156 -18.078125 L 20.078125 -17.800781 L 19.957031 -17.558594 L 19.839844 -17.078125 L 19.480469 -16.160156 L 19.398438 -15.917969 L 19.359375 -15.640625 L 19.039062 -14.519531 L 18.878906 -14 L 18.679688 -13.519531 L 18.558594 -13.078125 L 18.359375 -13.078125 L 18.359375 -13.757812 L 18.277344 -14.320312 L 18.320312 -15.757812 L 18.238281 -16.558594 L 18.277344 -16.878906 L 18.320312 -17.160156 L 18.277344 -17.480469 L 18.359375 -17.71875 L 18.320312 -18.039062 L 18.320312 -18.839844 L 18.277344 -19.277344 L 18.359375 -19.796875 L 18.359375 -20.078125 L 18.320312 -21.558594 L 18.359375 -21.796875 L 18.320312 -22.359375 L 18.320312 -22.597656 L 18.359375 -23.4375 L 18.320312 -24.078125 L 18.320312 -25.277344 L 18.277344 -26.277344 L 18.078125 -26.558594 L 17.800781 -26.558594 L 17.519531 -26.597656 L 17.199219 -26.597656 L 16.800781 -26.558594 L 16.320312 -26.597656 L 15.039062 -26.597656 L 14.640625 -26.398438 L 14.359375 -25.878906 L 14.238281 -25.636719 L 14 -24.917969 L 13.917969 -24.597656 L 13.679688 -24.078125 L 13.398438 -23.277344 L 13.320312 -23 L 12.917969 -22 L 12.679688 -21.4375 L 12.558594 -21 L 12.4375 -20.757812 L 12.238281 -20.277344 L 12.121094 -20.078125 L 11.960938 -19.597656 L 11.597656 -18.878906 L 11.519531 -18.597656 L 11.238281 -17.878906 L 11.160156 -17.398438 L 10.597656 -16.4375 L 10.558594 -16.199219 L 10.28125 -15.679688 L 10.160156 -15.199219 L 9.917969 -14.679688 L 9.839844 -14.398438 L 9.597656 -13.878906 L 9.480469 -13.640625 L 9.238281 -13.199219 L 9.078125 -13.199219 L 9.039062 -13.597656 L 9.121094 -14.117188 L 9.121094 -14.679688 L 9.160156 -15 L 9.121094 -15.277344 L 9.199219 -15.839844 L 9.238281 -16.71875 L 9.199219 -16.957031 L 9.238281 -17.238281 L 9.238281 -17.480469 L 9.320312 -17.757812 L 9.320312 -18 L 9.359375 -18.277344 L 9.398438 -18.839844 L 9.4375 -19.078125 L 9.480469 -19.359375 L 9.398438 -19.917969 L 9.398438 -20.4375 L 9.519531 -21 L 9.558594 -21.277344 L 9.558594 -22 L 9.597656 -22.917969 L 9.679688 -23.160156 L 9.71875 -24.636719 L 9.679688 -24.917969 L 9.679688 -25.160156 L 9.839844 -26.398438 L 9.800781 -26.679688 L 9.800781 -27.039062 L 9.71875 -27.71875 L 9.28125 -27.957031 L 9 -27.957031 L 8.558594 -27.917969 L 8.039062 -28 L 7.238281 -28 L 6.917969 -27.957031 L 6.71875 -27.957031 L 6.320312 -28 L 5.878906 -27.957031 L 4.839844 -27.957031 L 4.359375 -27.839844 L 4.28125 -27.277344 L 4.28125 -26.917969 L 4.238281 -26.679688 L 4.238281 -26.398438 L 4.28125 -25.917969 L 4.238281 -25.636719 L 4.238281 -25.398438 L 4.160156 -24.597656 L 4.160156 -24.320312 L 4.199219 -23.480469 L 4.160156 -22.878906 L 4.160156 -22.398438 L 4.121094 -22 L 4.078125 -21.71875 L 4 -20.957031 L 4.039062 -20.4375 L 4 -19.878906 L 3.960938 -18.71875 L 4 -18.4375 L 4.039062 -17.839844 L 3.960938 -17.558594 L 4 -17.238281 L 3.960938 -16.679688 L 4 -16.4375 L 3.960938 -15.917969 L 4 -15.640625 L 3.960938 -15.160156 L 3.917969 -14.878906 L 3.917969 -14.199219 L 3.960938 -13.917969 L 3.878906 -13.597656 L 3.878906 -13.320312 L 3.800781 -12.800781 L 3.757812 -12.4375 L 3.839844 -11.917969 L 3.757812 -11.199219 L 3.757812 -10.878906 L 3.71875 -10.320312 L 3.71875 -8.121094 L 3.679688 -7.558594 L 3.640625 -7.320312 L 3.640625 -6.519531 L 3.679688 -5.960938 L 3.640625 -5.679688 L 3.679688 -5.398438 L 3.640625 -4.839844 L 3.601562 -4.601562 L 3.601562 -4.199219 L 3.558594 -3.757812 L 3.519531 -3.480469 L 3.558594 -3.121094 L 3.519531 -2.839844 L 3.558594 -2.601562 L 3.519531 -2.121094 L 3.558594 -1.839844 L 3.558594 -1.480469 L 3.519531 -1.078125 L 3.601562 -0.800781 L 3.558594 -0.480469 L 3.800781 -0.121094 L 4.078125 -0.078125 L 4.480469 -0.078125 L 4.757812 -0.121094 L 5.160156 -0.121094 L 5.398438 -0.160156 L 5.800781 0 L 6.28125 -0.121094 L 7.199219 -0.078125 L 7.398438 -0.160156 L 7.757812 -0.0390625 L 8 -0.0390625 L 8.558594 -0.238281 L 8.640625 -0.441406 L 8.757812 -0.679688 L 9.039062 -1.121094 L 9.121094 -1.558594 L 9.238281 -1.917969 L 9.398438 -2.320312 L 9.519531 -2.601562 L 9.640625 -3.160156 L 9.800781 -3.398438 L 9.917969 -3.679688 L 10.039062 -4.160156 L 10.121094 -4.398438 L 10.359375 -4.878906 L 10.597656 -5.398438 L 10.71875 -5.839844 L 10.757812 -6.078125 L 11 -6.558594 L 11.039062 -6.839844 L 11.757812 -8.441406 L 11.917969 -8.71875 L 12.878906 -11.039062 L 13.121094 -11.558594 L 13.398438 -12.238281 L 13.597656 -12.960938 L 13.757812 -13.199219 L 13.839844 -13.480469 L 14.078125 -13.878906 L 14.277344 -13.878906 L 14.359375 -13.160156 L 14.320312 -12.4375 L 14.359375 -11.71875 L 14.398438 -11.039062 L 14.238281 -10.039062 L 14.238281 -9.757812 L 14.320312 -9.039062 L 14.398438 -8.679688 L 14.480469 -8.160156 L 14.398438 -7.558594 L 14.320312 -7.121094 L 14.4375 -6.640625 L 14.398438 -6.078125 L 14.4375 -5.800781 L 14.359375 -5.558594 L 14.480469 -5.28125 L 14.480469 -4.480469 L 14.519531 -4.199219 L 14.558594 -3.640625 L 14.519531 -3.398438 L 14.480469 -2.878906 L 14.597656 -2.558594 L 14.679688 -1.917969 L 14.757812 -1.359375 L 14.71875 -1.121094 L 14.757812 -0.558594 L 14.878906 -0.121094 L 15.078125 0.0390625 L 17.917969 0.0390625 Z M 18.519531 0.078125 "/></g></g></g></svg>